<svg width="24" height="24" viewBox="0 0 24 24" fill="none" xmlns="http://www.w3.org/2000/svg">
<path d="M13.5046 8.06744H10.4951C8.40341 8.06744 6.70166 9.76919 6.70166 11.8609V16.6409C6.70166 17.06 7.04132 17.3996 7.46033 17.3996H8.3796L8.85378 23.2018C8.88589 23.5956 9.21491 23.8988 9.60997 23.8988H14.415C14.8111 23.8988 15.1406 23.5941 15.1714 23.1988L15.6226 17.3993H16.5393C16.9584 17.3993 17.298 17.0597 17.298 16.6406V11.8609C17.298 9.76919 15.5963 8.06744 13.5046 8.06744ZM15.7807 15.882H14.9208C14.5248 15.882 14.1952 16.1868 14.1644 16.5821L13.7132 22.3815H10.3092L9.83502 16.5791C9.80291 16.185 9.47389 15.8821 9.07883 15.8821H8.21896V11.861C8.21896 10.6061 9.24017 9.58493 10.495 9.58493H13.5045C14.7596 9.58493 15.7805 10.6061 15.7805 11.861V15.882H15.7807Z" fill="#798777"/>
<path d="M11.9874 1.56796C10.314 1.56796 8.95264 2.92931 8.95264 4.60274C8.95264 6.27618 10.314 7.63753 11.9874 7.63753C13.6609 7.63753 15.0222 6.27618 15.0222 4.60274C15.0222 2.92931 13.6609 1.56796 11.9874 1.56796ZM11.9874 6.12013C11.1506 6.12013 10.47 5.4396 10.47 4.60274C10.47 3.76588 11.1506 3.08535 11.9874 3.08535C12.8243 3.08535 13.5048 3.76588 13.5048 4.60274C13.5048 5.4396 12.8243 6.12013 11.9874 6.12013Z" fill="#798777"/>
<path d="M20.2066 6.57536H17.1971C15.779 6.57536 14.4847 7.36061 13.8193 8.6246L15.1625 9.33119C15.5644 8.56718 16.344 8.09275 17.1971 8.09275H20.2063C21.4614 8.09275 22.4823 9.11397 22.4823 10.3688V14.3899H21.5972C21.2012 14.3899 20.8716 14.6946 20.8408 15.0899L20.3896 20.8896H16.9894L16.6637 16.6336L15.1508 16.7492L15.5302 21.7062C15.5603 22.1015 15.89 22.407 16.2866 22.407H21.0917C21.4879 22.407 21.8175 22.1023 21.8481 21.707L22.2993 15.9073H23.2413C23.6604 15.9073 24 15.5676 24 15.1486V10.3688C24 8.27711 22.2983 6.57536 20.2066 6.57536Z" fill="#798777"/>
<path d="M18.6891 0.101166C17.0156 0.101166 15.6543 1.46251 15.6543 3.13595C15.6543 4.80938 17.0156 6.17073 18.6891 6.17073C20.3628 6.17073 21.7239 4.80938 21.7239 3.13595C21.7239 1.46251 20.3625 0.101166 18.6891 0.101166ZM18.6891 4.65334C17.8522 4.65334 17.1717 3.97281 17.1717 3.13595C17.1717 2.29909 17.8522 1.61856 18.6891 1.61856C19.5259 1.61856 20.2065 2.29909 20.2065 3.13595C20.2065 3.97276 19.5259 4.65334 18.6891 4.65334Z" fill="#798777"/>
<path d="M3.79345 8.11801H6.80292C7.65595 8.11801 8.43539 8.59243 8.83748 9.35644L10.1804 8.64985C9.51525 7.38587 8.22089 6.60062 6.80292 6.60062H3.79345C1.70175 6.60062 0 8.30241 0 10.3941V15.1486C0 15.5677 0.339656 15.9073 0.758672 15.9073H1.67541L2.12658 21.707C2.15719 22.1023 2.48695 22.407 2.883 22.407H7.68806C8.08486 22.407 8.41462 22.1012 8.44448 21.7057L8.82384 16.6983L7.311 16.5838L6.98475 20.8896H3.58509L3.13369 15.0899C3.10308 14.6946 2.77331 14.3899 2.37727 14.3899H1.51739V10.3941C1.51739 9.13923 2.53861 8.11801 3.79345 8.11801Z" fill="#798777"/>
<path d="M5.28527 0.101166C3.61183 0.101166 2.25049 1.46251 2.25049 3.13595C2.25049 4.80938 3.61183 6.17073 5.28527 6.17073C6.95871 6.17073 8.32005 4.80938 8.32005 3.13595C8.32005 1.46251 6.95866 0.101166 5.28527 0.101166ZM5.28527 4.65334C4.44841 4.65334 3.76788 3.97281 3.76788 3.13595C3.76788 2.29909 4.44841 1.61856 5.28527 1.61856C6.12185 1.61856 6.80266 2.29909 6.80266 3.13595C6.80266 3.97276 6.12208 4.65334 5.28527 4.65334Z" fill="#798777"/>
</svg>
