<svg width="90" height="90" viewBox="0 0 90 90" fill="none" xmlns="http://www.w3.org/2000/svg">
<path d="M81.7086 5.55L83.9211 7.7625C86.9699 10.815 86.5086 16.2263 82.8824 19.8488L37.2561 65.475L22.4736 70.8825C20.6174 71.565 18.8099 70.68 18.4424 68.9138C18.3182 68.273 18.3767 67.6103 18.6111 67.0013L24.1236 52.0913L69.6224 6.58875C73.2486 2.96625 78.6599 2.50125 81.7086 5.55375V5.55ZM35.2649 10.0875C35.7573 10.0875 36.245 10.1845 36.7 10.373C37.1549 10.5614 37.5683 10.8376 37.9165 11.1859C38.2648 11.5341 38.541 11.9475 38.7294 12.4024C38.9179 12.8574 39.0149 13.345 39.0149 13.8375C39.0149 14.33 38.9179 14.8176 38.7294 15.2726C38.541 15.7275 38.2648 16.1409 37.9165 16.4892C37.5683 16.8374 37.1549 17.1136 36.7 17.3021C36.245 17.4905 35.7573 17.5875 35.2649 17.5875H20.2649C18.2758 17.5875 16.3681 18.3777 14.9616 19.7842C13.5551 21.1907 12.7649 23.0984 12.7649 25.0875V70.0875C12.7649 72.0766 13.5551 73.9843 14.9616 75.3908C16.3681 76.7973 18.2758 77.5875 20.2649 77.5875H65.2649C67.254 77.5875 69.1617 76.7973 70.5682 75.3908C71.9747 73.9843 72.7649 72.0766 72.7649 70.0875V55.0875C72.7649 54.0929 73.16 53.1391 73.8632 52.4359C74.5665 51.7326 75.5203 51.3375 76.5149 51.3375C77.5095 51.3375 78.4633 51.7326 79.1665 52.4359C79.8698 53.1391 80.2649 54.0929 80.2649 55.0875V70.0875C80.2649 74.0658 78.6845 77.8811 75.8715 80.6941C73.0585 83.5071 69.2431 85.0875 65.2649 85.0875H20.2649C16.2866 85.0875 12.4713 83.5071 9.65829 80.6941C6.84525 77.8811 5.26489 74.0658 5.26489 70.0875V25.0875C5.26489 21.1093 6.84525 17.2939 9.65829 14.4809C12.4713 11.6679 16.2866 10.0875 20.2649 10.0875H35.2649V10.0875Z" fill="white"/>
</svg>
