<svg width="60" height="60" viewBox="0 0 60 60" fill="none" xmlns="http://www.w3.org/2000/svg">
<path d="M29.3079 4.15797C29.5645 3.5432 30.4355 3.5432 30.6921 4.15797L37.4826 20.4246C37.5852 20.6703 37.8103 20.8432 38.0741 20.8789L55.7876 23.2764C56.4378 23.3644 56.6695 24.1858 56.1612 24.6007L42.4096 35.8224C42.1881 36.0031 42.0886 36.294 42.1531 36.5726L46.5544 55.5919C46.7095 56.262 45.9559 56.77 45.3928 56.3748L30.4309 45.8737C30.1723 45.6922 29.8277 45.6922 29.5691 45.8737L14.6071 56.3749C14.0441 56.77 13.2905 56.2621 13.4456 55.5919L17.8465 36.5725C17.911 36.294 17.8115 36.0031 17.59 35.8224L3.8388 24.6007C3.33048 24.1858 3.56222 23.3644 4.2124 23.2764L21.9259 20.8789C22.1897 20.8432 22.4148 20.6703 22.5174 20.4246L29.3079 4.15797Z" stroke="#798777" stroke-width="2" stroke-miterlimit="3.3292" stroke-linecap="round" stroke-linejoin="round"/>
</svg>
