<svg width="90" height="90" viewBox="0 0 90 90" fill="none" xmlns="http://www.w3.org/2000/svg">
<path d="M76.8607 21.1001C80.1453 22.2543 82.5 25.3834 82.5 29.0625V66.5625C82.5 75.3645 75.3645 82.5 66.5625 82.5H29.0625C25.3834 82.5 22.2543 80.1453 21.1001 76.8607L28.9649 76.8733L66.5625 76.875C72.2579 76.875 76.875 72.2579 76.875 66.5625V29.0625L76.8601 28.8713L76.8607 21.1001ZM64.6755 7.5C69.3355 7.5 73.113 11.2776 73.113 15.9375V64.6755C73.113 69.3355 69.3355 73.113 64.6755 73.113H15.9375C11.2776 73.113 7.5 69.3355 7.5 64.6755V15.9375C7.5 11.2776 11.2776 7.5 15.9375 7.5H64.6755ZM64.6755 13.125H15.9375C14.3842 13.125 13.125 14.3842 13.125 15.9375V64.6755C13.125 66.2288 14.3842 67.488 15.9375 67.488H64.6755C66.2288 67.488 67.488 66.2288 67.488 64.6755V15.9375C67.488 14.3842 66.2288 13.125 64.6755 13.125ZM35.9293 42.5932L50.5113 28.0113C51.6096 26.9129 53.3904 26.9129 54.4887 28.0113C55.4872 29.0098 55.578 30.5723 54.7611 31.6733L54.4887 31.9887L37.6137 48.8637C36.5043 49.9731 34.73 49.9461 33.651 48.8792L33.375 48.5625L27.75 41.0625C26.818 39.8199 27.0699 38.057 28.3125 37.125C29.4422 36.2777 31.0018 36.4089 31.9762 37.3733L32.25 37.6875L35.9293 42.5932L50.5113 28.0113L35.9293 42.5932Z" fill="white"/>
</svg>
