<svg width="28" height="28" viewBox="0 0 28 28" fill="none" xmlns="http://www.w3.org/2000/svg">
<path d="M26.8256 9.42017C25.4288 8.668 22.7123 7.52704 20.2149 8.33838C19.4174 8.5975 18.7197 9.02774 18.1147 9.54343C18.4183 8.80878 18.6118 8.01218 18.6118 7.17371C18.6118 4.54807 16.6875 2.31699 15.5404 1.22067C14.6765 0.395233 13.3232 0.395233 12.4591 1.22067C11.3119 2.31699 9.38759 4.54807 9.38759 7.17371C9.38759 8.01218 9.58113 8.80878 9.88469 9.54343C9.27971 9.02774 8.58202 8.5975 7.78456 8.33838C5.28731 7.52704 2.57088 8.66779 1.174 9.42017C0.121689 9.98648 -0.296585 11.2738 0.221665 12.3504C0.909745 13.7802 2.43672 16.2999 4.93398 17.1112C5.54665 17.3103 6.17064 17.3934 6.7863 17.3934C6.97194 17.3934 7.15694 17.3857 7.34044 17.3714C6.66347 17.7874 6.03905 18.3178 5.54643 18.9958H5.54622C4.00301 21.1201 4.24846 24.0561 4.53236 25.6173C4.72762 26.6918 5.65923 27.4487 6.722 27.4487C6.82198 27.4487 6.92323 27.442 7.02513 27.4284C8.5974 27.2158 11.4655 26.5421 13.0091 24.4176C13.502 23.7393 13.8134 22.9812 13.9997 22.2083C14.1862 22.9812 14.4977 23.7393 14.9905 24.4176C16.5339 26.5421 19.4022 27.2158 20.9745 27.4284C21.0764 27.442 21.1774 27.4487 21.2774 27.4487C22.3404 27.4487 23.272 26.6918 23.4673 25.6173C23.751 24.0561 23.9966 21.1201 22.4532 18.9958C21.9606 18.3178 21.3362 17.7874 20.6592 17.3714C20.8427 17.3857 21.0275 17.3934 21.2131 17.3934C21.8288 17.3934 22.4532 17.3103 23.0654 17.1112C25.5627 16.2999 27.0899 13.7802 27.778 12.3504C28.296 11.2738 27.8777 9.98648 26.8256 9.42017ZM13.9997 13.8892C14.7267 13.8892 15.3178 14.4805 15.3178 15.2074C15.3178 15.9342 14.7267 16.5255 13.9997 16.5255C13.2728 16.5255 12.6814 15.9342 12.6814 15.2074C12.6814 14.4805 13.273 13.8892 13.9997 13.8892ZM13.5908 2.40521C13.7056 2.29562 13.8525 2.24072 13.9997 2.24072C14.1467 2.24072 14.2941 2.29562 14.4086 2.40521C15.3665 3.32059 16.9738 5.15732 16.9738 7.17371C16.9738 8.90555 15.8134 10.4915 14.8187 11.5327V7.34738H13.1807V11.5327C12.1861 10.4915 11.0257 8.90555 11.0257 7.17371C11.0257 5.15732 12.6327 3.32059 13.5908 2.40521ZM5.44026 15.5533C3.52257 14.9301 2.27223 12.8341 1.6978 11.6401C1.56023 11.3543 1.6711 11.0127 1.95052 10.8623C2.85094 10.3774 4.39287 9.69446 5.93138 9.69446C6.38618 9.69446 6.84078 9.75406 7.27828 9.89633C8.92531 10.4315 10.075 12.0251 10.758 13.2927L6.77754 11.9995L6.27147 13.5574L10.2517 14.8507C8.95415 15.4749 7.08708 16.0884 5.44026 15.5533ZM11.6838 23.4548C10.4984 25.086 8.11867 25.6273 6.80553 25.8048C6.49107 25.8478 6.20055 25.6361 6.14394 25.3242C5.90703 24.0204 5.68636 21.5898 6.87154 19.9586C7.88945 18.5575 9.76058 17.9565 11.1771 17.6987L8.71724 21.0846L10.0423 22.0474L12.5024 18.6615C12.6951 20.0885 12.7015 22.0536 11.6838 23.4548ZM21.1277 19.9586C22.3129 21.5898 22.0924 24.0204 21.8555 25.3242C21.7987 25.6361 21.5081 25.848 21.1939 25.8048C19.8808 25.6275 17.5008 25.086 16.3156 23.4548C15.2977 22.0538 15.3043 20.0885 15.497 18.6617L17.9569 22.0474L19.2822 21.0846L16.8223 17.6987C18.2388 17.9565 20.1098 18.5577 21.1277 19.9586ZM26.3016 11.6401C25.7272 12.8341 24.4769 14.9301 22.5592 15.5533C22.1165 15.6971 21.6583 15.7579 21.1992 15.7579C19.95 15.7579 18.6969 15.3072 17.7477 14.8507L21.728 13.5574L21.2217 11.9995L17.2414 13.2929C17.9242 12.0253 19.0741 10.4315 20.7211 9.89633C21.1586 9.75406 21.6132 9.69446 22.068 9.69446C23.6066 9.69446 25.1485 10.3776 26.0489 10.8623C26.3281 11.0127 26.4392 11.3543 26.3016 11.6401Z" fill="#798777"/>
</svg>
