<svg width="60" height="58" viewBox="0 0 60 58" fill="none" xmlns="http://www.w3.org/2000/svg">
<path d="M44.8637 39.6256C45.6227 40.3849 45.6225 41.6156 44.8634 42.3745C44.484 42.7539 43.9864 42.9437 43.4892 42.9437C42.9917 42.9437 42.4941 42.7539 42.1146 42.3742L40.1161 40.3751C39.3572 39.6158 39.3573 38.3851 40.1164 37.6262C40.8756 36.8674 42.1063 36.8674 42.8654 37.6265L44.8637 39.6256ZM20.3645 28.0523C26.6613 28.0523 30.5586 21.835 30.5586 16.0747V1.94372C30.5586 1.42828 30.3538 0.933693 29.9893 0.569333C29.6248 0.204797 29.1304 0 28.6149 0L20.3638 0.000176689C19.2904 0.000176689 18.4201 0.870433 18.4201 1.9439V16.0039C18.4201 17.0774 19.2904 17.9476 20.3638 17.9476C21.4373 17.9476 22.3076 17.0774 22.3076 16.0039V3.88762L26.6712 3.88744V16.0749C26.6712 19.4665 24.4796 24.165 20.3645 24.165C16.9454 24.165 14.0568 20.4601 14.0568 16.0749V2.00521C14.0568 0.931749 13.1866 0.0614923 12.1131 0.0614923C11.0396 0.0614923 10.1694 0.931749 10.1694 2.00521V16.0747C10.1694 22.6792 14.7429 28.0523 20.3645 28.0523ZM60 9.32915V55.437C60 56.5105 59.1297 57.3808 58.0563 57.3808H1.94372C0.870257 57.3808 0 56.5105 0 55.437V9.32915C0 8.25569 0.870257 7.38543 1.94372 7.38543H4.62199C5.69545 7.38543 6.56571 8.25569 6.56571 9.32915C6.56571 10.4026 5.69545 11.2729 4.62199 11.2729H3.88744V53.4933H24.6904C25.2613 50.5915 27.0986 47.8744 29.9564 45.7243C27.393 39.4939 27.9643 33.5578 31.5634 29.9586C34.9956 26.5263 40.6292 25.8501 46.5768 28.0583C48.8883 23.5839 52.297 20.6966 56.1126 19.9617V11.2729H36.5275C35.454 11.2729 34.5837 10.4026 34.5837 9.32915C34.5837 8.25569 35.454 7.38543 36.5275 7.38543H58.0563C59.1297 7.38543 60 8.25551 60 9.32915ZM56.1126 45.0348C52.3819 45.9133 49.452 49.2689 48.7538 53.4931H56.1126V45.0348ZM56.1126 23.9671C53.4035 24.8208 50.9606 27.4356 49.3461 31.3174C49.1429 31.8062 48.749 32.1908 48.2555 32.3826C47.762 32.5743 47.2119 32.5563 46.7316 32.3333C41.6612 29.9743 36.9021 30.1176 34.3121 32.7072C31.6303 35.3893 31.5651 40.311 34.1416 45.5516C34.583 46.4494 34.2708 47.5356 33.4203 48.062C30.9516 49.5898 29.3267 51.471 28.6902 53.493H34.6712C34.6375 53.3493 34.6194 53.1995 34.6194 53.0454C34.6194 51.9719 35.4897 51.1017 36.5631 51.1017H39.3895C40.463 51.1017 41.3332 51.9719 41.3332 53.0454C41.3332 53.1995 41.3152 53.3493 41.2814 53.493H44.827C45.6175 47.0976 50.2524 42.0086 56.1124 41.0751V36.5407C56.0643 36.5444 56.0156 36.546 55.9666 36.546C54.8931 36.546 54.0229 35.6758 54.0229 34.6023V31.7756C54.0229 30.7021 54.8931 29.8319 55.9666 29.8319C56.0156 29.8319 56.0643 29.8336 56.1124 29.8372V23.9671H56.1126Z" fill="#798777"/>
</svg>
