<svg width="24" height="22" viewBox="0 0 24 22" fill="none" xmlns="http://www.w3.org/2000/svg">
<g opacity="0.7">
<path d="M5.67969 3.125L21.6797 17.125" stroke="#798777" stroke-width="2" stroke-linecap="round"/>
<path fill-rule="evenodd" clip-rule="evenodd" d="M14.0426 4.68797C14.2022 4.15923 14.7602 3.85995 15.2889 4.01949C18.3866 4.95425 21.0328 7.05361 22.8607 9.83923C23.3631 10.6049 23.4914 11.5256 23.2212 12.3785C23.0544 12.905 22.4923 13.1966 21.9659 13.0298C21.4394 12.863 21.1478 12.3009 21.3146 11.7745C21.4002 11.5044 21.3663 11.2075 21.1885 10.9364C19.59 8.50037 17.3126 6.71922 14.7111 5.93422C14.1824 5.77467 13.8831 5.21671 14.0426 4.68797ZM8.76607 4.81792C8.95103 5.33831 8.6791 5.91011 8.15871 6.09507C5.76189 6.94694 3.6683 8.65465 2.17105 10.9365C1.94298 11.2841 1.94298 11.6897 2.17105 12.0373C4.36418 15.3796 7.82872 17.4869 11.6798 17.4869C14.4107 17.4869 16.9385 16.4302 18.9629 14.6281C19.3754 14.2609 20.0075 14.2976 20.3747 14.7101C20.7419 15.1226 20.7052 15.7547 20.2927 16.1219C17.9372 18.2189 14.946 19.4869 11.6798 19.4869C7.05882 19.4869 3.00575 16.955 0.498892 13.1345C-0.166293 12.1208 -0.166298 10.8531 0.498881 9.83931C2.21129 7.22955 4.6414 5.22262 7.48892 4.21056C8.00931 4.0256 8.58111 4.29753 8.76607 4.81792Z" fill="#798777"/>
<path d="M14.5892 10.847C14.748 11.3998 14.6968 11.9829 14.4434 12.508C14.1899 13.0332 13.748 13.4719 13.1844 13.7578C12.6208 14.0437 11.9662 14.1613 11.3194 14.0928C10.6726 14.0244 10.0689 13.7736 9.59949 13.3783C9.13007 12.983 8.82045 12.4648 8.71743 11.9019C8.61441 11.3391 8.7236 10.7621 9.02848 10.2584C9.33337 9.75461 9.81738 9.35138 10.4074 9.10962C10.9973 8.86786 11.6612 8.80071 12.2987 8.91833" stroke="#798777" stroke-width="2"/>
</g>
</svg>
