<svg width="46" height="46" viewBox="0 0 46 46" fill="none" xmlns="http://www.w3.org/2000/svg">
<path fill-rule="evenodd" clip-rule="evenodd" d="M22.8157 8.85672e-08H22.6843C19.4783 -6.37854e-06 16.9828 -1.13826e-05 14.9707 0.13727C12.9292 0.276561 11.2579 0.563008 9.72274 1.1989C5.86354 2.79743 2.79743 5.86354 1.1989 9.72274C0.563009 11.2579 0.276561 12.9292 0.137271 14.9707C-1.07177e-05 16.9828 -5.70584e-06 19.4783 7.61265e-07 22.6843L3.44032e-07 22.8533C-1.82228e-05 26.5375 -3.19965e-05 29.291 0.214718 31.4657C0.375318 33.0921 0.662259 34.4817 1.1989 35.7773C2.79743 39.6365 5.86354 42.7026 9.72274 44.3011C11.2579 44.937 12.9292 45.2234 14.9707 45.3627C16.9827 45.5 19.4783 45.5 22.6843 45.5H22.8157C26.0217 45.5 28.5173 45.5 30.5293 45.3627C32.5708 45.2234 34.2421 44.937 35.7773 44.3011C39.6365 42.7026 42.7026 39.6365 44.3011 35.7773C45.1375 33.7579 45.3779 31.4715 45.4586 28.3795C45.5082 28.1551 45.5132 27.9229 45.4737 27.6969C45.5 26.2743 45.5 24.6447 45.5 22.7661V22.6843C45.5 19.4783 45.5 16.9827 45.3627 14.9707C45.2234 12.9292 44.937 11.2579 44.3011 9.72274C42.7026 5.86354 39.6365 2.79743 35.7773 1.1989C34.2421 0.563008 32.5708 0.276561 30.5293 0.13727C28.5172 -1.13826e-05 26.0217 -6.37854e-06 22.8157 8.85672e-08ZM18.2249 22.4498L25.0069 29.2318L35.9144 40.336C35.4418 40.6112 34.9488 40.8559 34.4379 41.0675C33.4003 41.4973 32.1544 41.7437 30.2911 41.8708C28.412 41.9991 26.0355 42 22.75 42C19.4645 42 17.088 41.9991 15.2089 41.8708C13.3457 41.7437 12.0998 41.4973 11.0621 41.0675C8.06054 39.8242 5.67578 37.4395 4.43248 34.4379C4.14334 33.7398 3.9366 32.9455 3.79375 31.9311L13.2751 22.4498C14.642 21.0829 16.858 21.0829 18.2249 22.4498ZM41.0675 34.4379C40.494 35.8225 39.6776 37.0759 38.6698 38.1465L28.7139 28.011L32.5251 24.1998C33.892 22.8329 36.108 22.8329 37.4749 24.1998L41.9485 28.6734C41.8588 31.4658 41.6189 33.1067 41.0675 34.4379ZM34.125 14C35.5747 14 36.75 12.8247 36.75 11.375C36.75 9.92525 35.5747 8.75 34.125 8.75C32.6753 8.75 31.5 9.92525 31.5 11.375C31.5 12.8247 32.6753 14 34.125 14Z" fill="#CACACA"/>
</svg>
