<svg width="90" height="80" viewBox="0 0 90 80" fill="none" xmlns="http://www.w3.org/2000/svg">
<path d="M76.8679 0.82637C76.6969 0.82637 76.5247 0.843012 76.3559 0.875818L43.0844 7.33774C42.3824 7.47422 41.7753 7.87573 41.3755 8.46852C40.9754 9.06141 40.8303 9.77472 40.9667 10.4767L44.7595 30.0046L46.573 31.8181L48.3868 33.632L43.8199 10.1178L76.7148 3.72884L87.0972 57.1853L60.292 62.3913L58.4782 64.2052L56.6645 66.0189L87.8326 59.9654C89.2818 59.6838 90.2318 58.2756 89.9506 56.8264L79.4951 2.99383C79.2512 1.73794 78.1463 0.82637 76.8679 0.82637Z" fill="white"/>
<path d="M69.8621 36.6465L66.1544 17.5564C66.0332 16.9331 65.4299 16.526 64.8065 16.647L59.6983 17.6391C59.075 17.7602 58.6679 18.3636 58.7888 18.9869L62.4966 38.077C62.6177 38.7003 63.221 39.1074 63.8445 38.9864L68.9528 37.9943C69.576 37.8733 69.9831 37.2699 69.8621 36.6465Z" fill="white"/>
<path d="M67.6298 48.581C69.7017 48.581 71.3814 46.9013 71.3814 44.8294C71.3814 42.7574 69.7017 41.0778 67.6298 41.0778C65.5578 41.0778 63.8782 42.7574 63.8782 44.8294C63.8782 46.9013 65.5578 48.581 67.6298 48.581Z" fill="white"/>
<path d="M39.1408 78.8093C39.3836 79.0522 39.7017 79.1736 40.0196 79.1736C40.3376 79.1736 40.6558 79.0522 40.8985 78.8093L53.3306 66.3775L54.7854 64.9225L56.5992 63.1088L64.8646 54.8433C65.35 54.358 65.35 53.571 64.8646 53.0855L49.1042 37.3251L47.2905 35.5113L45.4769 33.6976L26.0879 14.3087C25.8451 14.0659 25.527 13.9446 25.209 13.9446C24.891 13.9446 24.5728 14.0659 24.3301 14.3087L0.364041 38.2748C-0.121347 38.7601 -0.121347 39.5472 0.364041 40.0326L39.1408 78.8093ZM20.2051 43.287C20.2051 42.652 20.7198 42.1373 21.3548 42.1373H28.3459V35.1462C28.3459 34.5111 28.8607 33.9965 29.4956 33.9965H34.6993C35.3343 33.9965 35.849 34.5112 35.849 35.1462V42.1373H42.84C43.475 42.1373 43.9897 42.652 43.9897 43.287V48.4907C43.9897 49.1257 43.4749 49.6404 42.84 49.6404H35.849V56.6315C35.849 57.2665 35.3342 57.7812 34.6993 57.7812H29.4957C28.8607 57.7812 28.346 57.2665 28.346 56.6315V49.6404H21.3549C20.7199 49.6404 20.2052 49.1256 20.2052 48.4907L20.2051 43.287Z" fill="white"/>
</svg>
