<svg width="80" height="68" viewBox="0 0 80 68" fill="none" xmlns="http://www.w3.org/2000/svg">
<path d="M58.2839 14.3125H7.65893C5.79477 14.3146 4.00755 15.056 2.68938 16.3742C1.37122 17.6924 0.62976 19.4796 0.627686 21.3438V60.7188C0.62976 62.5829 1.37122 64.3701 2.68938 65.6883C4.00755 67.0065 5.79477 67.7479 7.65893 67.75H58.2839C60.1481 67.7479 61.9353 67.0065 63.2535 65.6883C64.5717 64.3701 65.3131 62.5829 65.3152 60.7188V21.3438C65.3131 19.4796 64.5717 17.6924 63.2535 16.3742C61.9353 15.056 60.1481 14.3146 58.2839 14.3125V14.3125ZM56.8777 59.3125H9.06518V22.75H56.8777V59.3125ZM79.3777 7.28125V50.875C79.3777 51.9939 78.9332 53.0669 78.142 53.8581C77.3509 54.6493 76.2778 55.0938 75.1589 55.0938C74.0401 55.0938 72.967 54.6493 72.1758 53.8581C71.3847 53.0669 70.9402 51.9939 70.9402 50.875V8.6875H17.5027C16.3838 8.6875 15.3107 8.24303 14.5196 7.45186C13.7284 6.66069 13.2839 5.58763 13.2839 4.46875C13.2839 3.34987 13.7284 2.27681 14.5196 1.48564C15.3107 0.694474 16.3838 0.25 17.5027 0.25H72.3464C74.2106 0.252074 75.9978 0.99353 77.316 2.3117C78.6342 3.62986 79.3756 5.41708 79.3777 7.28125V7.28125Z" fill="white"/>
</svg>
