<svg width="26" height="27" viewBox="0 0 26 27" fill="none" xmlns="http://www.w3.org/2000/svg">
<path d="M1.33331 10.9484C1.33331 9.9704 1.81005 9.05378 2.61079 8.49222L13 1.2063L23.3892 8.49222C24.1899 9.05378 24.6666 9.9704 24.6666 10.9484V23.1507C24.6666 24.5314 23.5474 25.6507 22.1666 25.6507H17.5C16.9477 25.6507 16.5 25.203 16.5 24.6507V17.8174C16.5 17.5413 16.2761 17.3174 16 17.3174H9.99998C9.72384 17.3174 9.49998 17.5413 9.49998 17.8174V24.6507C9.49998 25.203 9.05226 25.6507 8.49998 25.6507H3.83331C2.4526 25.6507 1.33331 24.5314 1.33331 23.1507V10.9484Z" stroke="#798777" stroke-width="2" stroke-linecap="round" stroke-linejoin="round"/>
</svg>
