<svg width="88" height="88" viewBox="0 0 88 88" fill="none" xmlns="http://www.w3.org/2000/svg">
<path d="M80.5273 7.47266C76.2031 3.14844 70.4375 0.757812 64.3203 0.757812C58.168 0.757812 52.4375 3.14844 48.0781 7.47266L30.6406 24.9102C26.3164 29.2344 23.9258 35 23.9258 41.1523C23.9258 47.3047 26.3164 53.0352 30.6406 57.3945C31.9414 58.6953 33.3828 59.8203 34.9297 60.7695L35.1758 60.9102L45.1602 50.9258L44.5625 50.7852C42.7695 50.3633 41.1523 49.4492 39.8867 48.1836C38.0234 46.3203 36.9688 43.8242 36.9688 41.1523C36.9688 38.5156 37.9883 36.0195 39.8867 34.1211L57.3242 16.6836C59.1875 14.8203 61.6836 13.7656 64.3555 13.7656C66.9922 13.7656 69.4883 14.7852 71.3867 16.6836C73.25 18.5469 74.3047 21.043 74.3047 23.7148C74.3047 26.3867 73.2852 28.8477 71.3867 30.7461L66.1133 36.0195L66.2188 36.2305C68.293 41.1172 68.8906 46.4609 67.9414 51.6992L67.7305 52.7891L80.5977 39.9219C84.8516 35.5977 87.2422 29.832 87.2422 23.6797C87.2422 17.5625 84.8516 11.7969 80.5273 7.47266Z" fill="white"/>
<path d="M53.0703 27.2656L52.8242 27.125L42.8398 37.1094L43.4375 37.25C45.2305 37.6719 46.8477 38.5859 48.1133 39.8516C51.9805 43.7187 51.9805 50.0117 48.1133 53.8789L30.6758 71.3164C28.8125 73.1797 26.3164 74.2344 23.6445 74.2344C21.0078 74.2344 18.5117 73.2148 16.6133 71.3164C14.75 69.4531 13.6953 66.957 13.6953 64.2852C13.6953 61.6484 14.7148 59.1523 16.6133 57.2539L21.8867 51.9805L21.7812 51.7695C19.707 46.8828 19.1094 41.5391 20.0586 36.3008L20.2695 35.2109L7.40234 48.0781C3.07812 52.4023 0.6875 58.168 0.6875 64.3203C0.6875 70.4727 3.07812 76.2031 7.40234 80.5625C11.7266 84.8867 17.4922 87.2773 23.6445 87.2773C29.7969 87.2773 35.5625 84.8867 39.8867 80.5625L57.3242 63.125C61.6484 58.8008 64.0391 53.0352 64.0391 46.8828C64.0391 40.7305 61.6836 34.9648 57.3594 30.6406C56.0586 29.375 54.6172 28.2148 53.0703 27.2656Z" fill="white"/>
</svg>
